<?xml version="1.0" standalone="no"?>
<!DOCTYPE svg PUBLIC "-//W3C//DTD SVG 20010904//EN"
 "http://www.w3.org/TR/2001/REC-SVG-20010904/DTD/svg10.dtd">
<svg version="1.0" xmlns="http://www.w3.org/2000/svg"
 width="512.000000pt" height="512.000000pt" viewBox="0 0 512.000000 512.000000"
 preserveAspectRatio="xMidYMid meet">
<metadata>
Created by potrace 1.14, written by Peter Selinger 2001-2017
</metadata>
<g transform="translate(0.000000,512.000000) scale(0.100000,-0.100000)"
fill="#000000" stroke="none">
<path d="M2348 4933 c-343 -368 -706 -710 -1183 -1114 -88 -75 -192 -170 -231
-211 -559 -589 -738 -1452 -460 -2208 24 -63 182 -403 352 -754 l309 -640 5
785 c6 755 7 788 28 904 74 397 237 742 495 1040 195 227 418 396 699 530 155
74 251 105 558 185 290 76 470 126 478 135 16 15 -100 308 -204 517 -88 175
-178 330 -286 491 -86 127 -374 510 -387 515 -4 1 -82 -77 -173 -175z"/>
<path d="M4561 3892 c-77 -170 -275 -552 -365 -707 -195 -332 -508 -780 -770
-1099 -635 -774 -1414 -1489 -2256 -2068 -24 -16 -8 -17 310 -17 615 -1 952
32 1341 129 513 129 960 379 1274 712 333 354 550 811 634 1338 33 205 43 333
43 570 0 234 -10 382 -43 610 -20 140 -104 582 -117 612 -5 12 -19 -9 -51 -80z"/>
</g>
</svg>
